<svg width="17" height="17" viewBox="0 0 17 17" fill="none" xmlns="http://www.w3.org/2000/svg">
<path fill-rule="evenodd" clip-rule="evenodd" d="M2.17355 5.73857C1.65088 7.00041 1.51412 8.38892 1.78058 9.72848C2.04704 11.0681 2.70474 12.2985 3.67051 13.2643C4.63629 14.2301 5.86676 14.8878 7.20633 15.1542C8.5459 15.4207 9.9344 15.2839 11.1962 14.7613C12.4581 14.2386 13.5366 13.3535 14.2954 12.2178C15.0542 11.0822 15.4592 9.74707 15.4592 8.38125L16.7746 8.38125C16.7746 10.0072 16.2924 11.5967 15.3891 12.9486C14.4858 14.3006 13.2018 15.3543 11.6996 15.9765C10.1974 16.5987 8.54444 16.7615 6.94972 16.4443C5.35499 16.1271 3.89014 15.3441 2.74041 14.1944C1.59068 13.0447 0.807699 11.5798 0.490488 9.9851C0.173278 8.39037 0.336082 6.7374 0.958313 5.2352C1.58054 3.733 2.63425 2.44905 3.9862 1.54571C5.33814 0.642373 6.92759 0.160217 8.55356 0.160217L8.55356 1.47558C7.18775 1.47558 5.85261 1.88059 4.71697 2.6394C3.58134 3.3982 2.69623 4.47672 2.17355 5.73857Z" fill="#8A2DD6"/>
<path d="M5.08081 8.03091C4.81461 7.76052 4.34135 7.76052 4.07514 8.03091C3.80894 8.30129 3.80894 8.78197 4.07514 9.05236L7.35836 12.3871C7.50625 12.5373 7.68372 12.5974 7.8612 12.5974H7.89077C8.09782 12.5974 8.27529 12.5073 8.39361 12.327L16.6164 2.32279C16.8531 2.02237 16.8235 1.57173 16.5277 1.30134C16.2319 1.061 15.7882 1.09104 15.522 1.39147L7.80204 10.7948L5.08081 8.03091Z" fill="#8A2DD6"/>
</svg>
