<svg width="21" height="17" viewBox="0 0 21 17" fill="none" xmlns="http://www.w3.org/2000/svg">
<path d="M18.5555 5.41094C18.6913 5.2887 18.7957 5.13536 18.8597 4.96395C18.9238 4.79254 18.9456 4.60814 18.9234 4.42644C18.9061 4.2599 18.8399 4.10225 18.7334 3.97341C18.6268 3.84456 18.4846 3.75031 18.3247 3.70255C18.1909 3.82478 18.0879 3.97704 18.0239 4.14688C17.96 4.31673 17.937 4.49934 17.9569 4.67981C17.9737 4.84732 18.0396 5.0061 18.1461 5.13618C18.2526 5.26626 18.395 5.36185 18.5555 5.41094V5.41094ZM18.9955 5.80908C18.8483 5.93254 18.7328 6.08971 18.6587 6.26734C18.5846 6.44497 18.5542 6.63786 18.5699 6.82976C18.7568 6.84622 18.9449 6.82276 19.1221 6.76091C19.2992 6.69907 19.4612 6.60026 19.5975 6.47099C19.7338 6.34172 19.8413 6.18492 19.9128 6.01094C19.9844 5.83695 20.0183 5.64973 20.0125 5.46161C19.8278 5.43659 19.6398 5.45495 19.4633 5.51525C19.2868 5.57554 19.1267 5.67613 18.9955 5.80908V5.80908ZM18.3896 6.79357C18.4375 6.62051 18.4365 6.43751 18.3868 6.26497C18.3372 6.09242 18.2408 5.93711 18.1083 5.81632C17.9758 5.69343 17.8126 5.60898 17.636 5.57201C17.4594 5.53503 17.2761 5.54692 17.1057 5.60639C17.0553 5.77867 17.0543 5.96173 17.1028 6.13457C17.1512 6.30741 17.2473 6.46305 17.3798 6.58364C17.5138 6.70647 17.6783 6.79079 17.856 6.82773C18.0337 6.86467 18.218 6.85287 18.3896 6.79357V6.79357ZM18.3968 8.0459C18.2173 8.15956 18.0664 8.31354 17.9563 8.4957C17.8461 8.67785 17.7797 8.8832 17.7621 9.09555C17.9604 9.15814 18.1709 9.17175 18.3756 9.1352C18.5803 9.09865 18.7732 9.01303 18.9378 8.88562C19.1163 8.77072 19.2662 8.61644 19.3762 8.43453C19.4862 8.25262 19.5534 8.04789 19.5725 7.83597C19.3744 7.7715 19.1636 7.75692 18.9586 7.79353C18.7535 7.83014 18.5606 7.91681 18.3968 8.0459V8.0459ZM17.5746 9.01592C17.6564 8.83631 17.6882 8.63782 17.6666 8.44153C17.645 8.24525 17.5708 8.0585 17.4519 7.90113C17.3342 7.74472 17.1752 7.62453 16.9929 7.55417C16.8106 7.4838 16.6123 7.46607 16.4205 7.50298C16.3346 7.68005 16.298 7.87711 16.3145 8.07333C16.331 8.26956 16.4 8.45767 16.5143 8.61778C16.6343 8.77926 16.7981 8.90267 16.9861 8.97327C17.1741 9.04387 17.3784 9.05868 17.5746 9.01592V9.01592ZM17.7765 10.3696C17.5559 10.4554 17.3572 10.5897 17.195 10.7625C17.0327 10.9354 16.9111 11.1424 16.8389 11.3686C17.025 11.4887 17.2387 11.5591 17.4597 11.5731C17.6806 11.587 17.9014 11.544 18.1011 11.4482C18.3217 11.3624 18.5204 11.2281 18.6827 11.0553C18.8449 10.8824 18.9666 10.6754 19.0388 10.4492C18.8534 10.3271 18.6395 10.2555 18.4182 10.2415C18.1968 10.2276 17.9757 10.2717 17.7765 10.3696ZM15.7136 10.5289C15.784 10.73 15.9118 10.9059 16.0811 11.0346C16.2505 11.1633 16.4538 11.2392 16.6657 11.2527C16.7988 11.0735 16.8849 10.8636 16.9164 10.6424C16.9479 10.4211 16.9237 10.1954 16.8461 9.98593C16.7744 9.78423 16.6453 9.6081 16.4747 9.4794C16.3042 9.35071 16.0997 9.27513 15.8868 9.26204C15.7531 9.44108 15.6671 9.65132 15.6368 9.87296C15.6065 10.0946 15.633 10.3203 15.7136 10.5289V10.5289ZM16.5143 12.2951C16.2845 12.3548 16.0708 12.465 15.8887 12.6178C15.7066 12.7705 15.5605 12.962 15.4612 13.1783C15.6237 13.3253 15.8226 13.4258 16.0371 13.4691C16.2515 13.5124 16.4737 13.497 16.6802 13.4244C16.9106 13.3665 17.1252 13.2578 17.3086 13.1063C17.492 12.9548 17.6395 12.7643 17.7405 12.5485C17.5768 12.401 17.377 12.2997 17.1615 12.2552C16.9461 12.2107 16.7227 12.2245 16.5143 12.2951ZM14.8553 10.927C14.6992 11.0909 14.5859 11.291 14.5255 11.5095C14.4651 11.728 14.4595 11.9581 14.5091 12.1793C14.5496 12.3865 14.6498 12.5771 14.7972 12.7277C14.9447 12.8782 15.1329 12.9821 15.3386 13.0263C15.4897 12.8605 15.6003 12.6617 15.6617 12.4456C15.723 12.2295 15.7334 12.002 15.692 11.7812C15.6523 11.5718 15.5516 11.3788 15.4027 11.2268C15.2538 11.0748 15.0633 10.9704 14.8553 10.927V10.927ZM14.7471 14.0759C14.4919 14.0553 14.2353 14.0942 13.9976 14.1896C13.7598 14.2851 13.5473 14.4344 13.3767 14.6261C13.4606 14.848 13.6082 15.04 13.8007 15.1778C13.9933 15.3157 14.2222 15.3932 14.4586 15.4006C14.7144 15.4204 14.9713 15.3804 15.2091 15.2837C15.4469 15.1869 15.6591 15.0362 15.8291 14.8432C15.7432 14.6232 15.5949 14.4333 15.4026 14.2969C15.2104 14.1605 14.9825 14.0837 14.7471 14.0759ZM12.8285 13.1493C12.7789 13.3812 12.7967 13.6225 12.8798 13.8445C12.9629 14.0666 13.1079 14.2599 13.2973 14.4017C13.5217 14.2714 13.7137 14.0916 13.8586 13.8759C14.0036 13.6602 14.0978 13.4142 14.134 13.1566C14.1818 12.9247 14.1632 12.684 14.0802 12.4623C13.9972 12.2407 13.8533 12.0472 13.6652 11.9042C13.4408 12.0345 13.2488 12.2143 13.1039 12.43C12.9589 12.6457 12.8648 12.8917 12.8285 13.1493V13.1493ZM12.439 15.2921C12.159 15.2686 11.8773 15.3113 11.6168 15.4169C11.3562 15.5225 11.124 15.688 10.9387 15.9001C11.0339 16.1393 11.1965 16.3454 11.4066 16.4932C11.6167 16.6411 11.8652 16.7243 12.1216 16.7326C12.4025 16.7539 12.6845 16.7101 12.9459 16.6047C13.2073 16.4993 13.441 16.335 13.6291 16.1245C13.5334 15.8843 13.3697 15.6774 13.1582 15.5295C12.9467 15.3816 12.6967 15.299 12.439 15.2921ZM11.7682 14.2859C11.8237 14.0314 11.8049 13.7664 11.7141 13.5224C11.6233 13.2785 11.4642 13.066 11.2561 12.9105C11.0085 13.051 10.7964 13.2468 10.6363 13.4828C10.4762 13.7188 10.3724 13.9886 10.3329 14.2714C10.2812 14.5268 10.3018 14.7917 10.3923 15.036C10.4828 15.2804 10.6396 15.4944 10.845 15.654C11.0921 15.511 11.3036 15.3136 11.4635 15.0766C11.6235 14.8396 11.7276 14.5692 11.7682 14.2859ZM2.08855 4.67981C2.10956 4.49818 2.08715 4.31414 2.02318 4.14294C1.95921 3.97174 1.85552 3.81829 1.7207 3.69531C1.56078 3.74307 1.41857 3.83732 1.31201 3.96617C1.20545 4.09501 1.13934 4.25266 1.12203 4.4192C1.09981 4.6009 1.12165 4.7853 1.1857 4.95671C1.24974 5.12812 1.3541 5.28146 1.48989 5.4037C1.64932 5.3551 1.79104 5.2606 1.89746 5.13192C2.00388 5.00324 2.07033 4.84603 2.08855 4.67981V4.67981ZM1.47546 6.82976C1.4912 6.63786 1.46076 6.44497 1.3867 6.26734C1.31264 6.08971 1.19713 5.93254 1.0499 5.80908C0.915673 5.67185 0.750765 5.56874 0.568868 5.50831C0.386971 5.44788 0.193335 5.43187 0.00403548 5.46161C-0.0117029 5.65351 0.0187398 5.8464 0.0927995 6.02403C0.166859 6.20166 0.282367 6.35883 0.429594 6.4823C0.563117 6.62052 0.727951 6.7243 0.910054 6.7848C1.09216 6.8453 1.28613 6.86072 1.47546 6.82976ZM1.65578 6.79357C1.82736 6.85287 2.0117 6.86467 2.1894 6.82773C2.36709 6.79079 2.53159 6.70647 2.66558 6.58364C2.79814 6.46305 2.89417 6.30741 2.94264 6.13457C2.99112 5.96173 2.99009 5.77867 2.93967 5.60639C2.76929 5.54692 2.586 5.53503 2.40941 5.57201C2.23282 5.60898 2.06956 5.69343 1.93708 5.81632C1.80465 5.93711 1.70822 6.09242 1.65856 6.26497C1.60889 6.43751 1.60793 6.62051 1.65578 6.79357V6.79357ZM2.2833 9.09555C2.26574 8.8832 2.19927 8.67785 2.08912 8.4957C1.97897 8.31354 1.82815 8.15956 1.64857 8.0459C1.48414 7.91803 1.29093 7.83267 1.08592 7.79733C0.880911 7.76198 0.670389 7.77774 0.472872 7.84321C0.493097 8.05387 0.560741 8.25715 0.670697 8.43773C0.780653 8.61831 0.930048 8.77146 1.1076 8.88562C1.27225 9.01303 1.46512 9.09865 1.66982 9.1352C1.87451 9.17175 2.08497 9.15814 2.2833 9.09555ZM2.47083 9.01592C2.667 9.05868 2.87128 9.04387 3.0593 8.97327C3.24731 8.90267 3.4111 8.77926 3.53113 8.61778C3.65 8.46041 3.72417 8.27366 3.74576 8.07737C3.76735 7.88108 3.73555 7.68259 3.65374 7.50298C3.46193 7.46607 3.26364 7.4838 3.08135 7.55417C2.89906 7.62453 2.74004 7.74472 2.6223 7.90113C2.49873 8.05571 2.41936 8.2411 2.39268 8.43746C2.366 8.63383 2.39301 8.83378 2.47083 9.01592V9.01592ZM3.20655 11.3686C3.13435 11.1424 3.01267 10.9354 2.85043 10.7625C2.68819 10.5897 2.48949 10.4554 2.26887 10.3696C2.06971 10.2717 1.84857 10.2276 1.62723 10.2415C1.4059 10.2555 1.19201 10.3271 1.00662 10.4492C1.07882 10.6754 1.2005 10.8824 1.36274 11.0553C1.52498 11.2281 1.72368 11.3624 1.9443 11.4482C2.14401 11.544 2.36481 11.587 2.58574 11.5731C2.80666 11.5591 3.02036 11.4887 3.20655 11.3686V11.3686ZM3.19933 9.97146C3.12167 10.1809 3.09748 10.4066 3.12897 10.6279C3.16047 10.8491 3.24665 11.059 3.37966 11.2383C3.59163 11.2247 3.79495 11.1489 3.96426 11.0201C4.13357 10.8914 4.26138 10.7155 4.33175 10.5144C4.41244 10.3058 4.43888 10.0801 4.4086 9.85848C4.37831 9.63685 4.29229 9.4266 4.15864 9.24756C3.94567 9.26065 3.74122 9.33623 3.57067 9.46493C3.40012 9.59362 3.271 9.76975 3.19933 9.97146ZM3.53113 12.2951C3.32271 12.2245 3.09932 12.2107 2.88385 12.2552C2.66839 12.2997 2.46859 12.401 2.30494 12.5485C2.40588 12.7643 2.55339 12.9548 2.73677 13.1063C2.92016 13.2578 3.13483 13.3665 3.36523 13.4244C3.57172 13.497 3.79386 13.5124 4.00834 13.4691C4.22281 13.4258 4.42172 13.3253 4.5842 13.1783C4.48486 12.962 4.33884 12.7705 4.15671 12.6178C3.97458 12.465 3.7609 12.3548 3.53113 12.2951V12.2951ZM4.70682 13.0263C4.9125 12.9821 5.10072 12.8782 5.24816 12.7277C5.39561 12.5771 5.49579 12.3865 5.5363 12.1793C5.58592 11.9581 5.58028 11.728 5.51988 11.5095C5.45947 11.291 5.34618 11.0909 5.19008 10.927C4.98212 10.9704 4.79165 11.0748 4.64273 11.2268C4.49381 11.3788 4.39313 11.5718 4.35339 11.7812C4.31199 12.002 4.32237 12.2295 4.38371 12.4456C4.44505 12.6617 4.55568 12.8605 4.70682 13.0263ZM6.66872 14.6261C6.49809 14.4344 6.28558 14.2851 6.04782 14.1896C5.81006 14.0942 5.55352 14.0553 5.29828 14.0759C5.06783 14.0801 4.8434 14.1505 4.65162 14.2788C4.45985 14.4071 4.30878 14.5879 4.21635 14.7998C4.38627 14.9928 4.59847 15.1435 4.83627 15.2402C5.07406 15.337 5.33097 15.377 5.58679 15.3572C5.81825 15.3534 6.04364 15.2822 6.23566 15.1525C6.42768 15.0227 6.57811 14.8399 6.66872 14.6261V14.6261ZM6.74806 14.4017C6.93754 14.2599 7.08245 14.0666 7.16557 13.8445C7.24869 13.6225 7.2665 13.3812 7.2169 13.1493C7.18465 12.8949 7.09599 12.651 6.95744 12.4356C6.81888 12.2201 6.63396 12.0385 6.41627 11.9042C6.22815 12.0472 6.08425 12.2407 6.00127 12.4623C5.91829 12.684 5.89962 12.9247 5.94743 13.1566C5.97968 13.411 6.06834 13.6549 6.2069 13.8704C6.34545 14.0858 6.53037 14.2674 6.74806 14.4017V14.4017ZM6.41627 16.1245C6.60367 16.3363 6.83711 16.5019 7.09852 16.6086C7.35992 16.7153 7.64229 16.7602 7.92376 16.7398C8.18022 16.7315 8.42869 16.6483 8.63877 16.5005C8.84886 16.3526 9.01146 16.1465 9.10667 15.9074C8.92143 15.6953 8.68919 15.5298 8.42862 15.4242C8.16805 15.3186 7.88643 15.2758 7.60639 15.2993C7.34951 15.3057 7.10007 15.3871 6.88866 15.5337C6.67725 15.6803 6.51308 15.8857 6.41627 16.1245V16.1245ZM8.7893 12.9105C8.58116 13.066 8.42213 13.2785 8.3313 13.5224C8.24046 13.7664 8.22167 14.0314 8.27719 14.2859C8.31775 14.5692 8.42194 14.8396 8.58188 15.0766C8.74182 15.3136 8.95333 15.511 9.20043 15.654C9.40582 15.4944 9.56262 15.2804 9.65312 15.036C9.74362 14.7917 9.76421 14.5268 9.71255 14.2714C9.67302 13.9886 9.56919 13.7188 9.40909 13.4828C9.24899 13.2468 9.03692 13.051 8.7893 12.9105V12.9105Z" fill="#8A2DD6"/>
<path d="M11.5022 3.55422L10.0221 0.540039L8.54205 3.55422L5.23621 4.03129L7.63456 6.37325L7.06198 9.68018L10.0221 8.11887L12.9822 9.68018L12.4097 6.37325L14.808 4.03129L11.5022 3.55422Z" fill="#8A2DD6"/>
</svg>
