<svg width="28" height="29" viewBox="0 0 28 29" fill="none" xmlns="http://www.w3.org/2000/svg">
<path d="M18.2175 16.4344L16.7359 16.2652C16.38 16.2244 16.03 16.3469 15.7792 16.5977L14.7059 17.6711C13.055 16.8311 11.7017 15.4836 10.8617 13.8269L11.9409 12.7477C12.1917 12.4969 12.3142 12.1469 12.2734 11.7911L12.1042 10.3211C12.0342 9.73191 11.5384 9.28857 10.9434 9.28857H9.93419C9.27502 9.28857 8.72669 9.83691 8.76752 10.4961C9.07669 15.4777 13.0609 19.4561 18.0367 19.7652C18.6959 19.8061 19.2442 19.2577 19.2442 18.5986V17.5894C19.25 17.0002 18.8067 16.5044 18.2175 16.4344Z" fill="white"/>
<path d="M27.5 14.5325C27.5 22.0932 21.4499 28.2114 14 28.2114C6.55012 28.2114 0.5 22.0932 0.5 14.5325C0.5 6.97179 6.55012 0.853516 14 0.853516C21.4499 0.853516 27.5 6.97179 27.5 14.5325Z" stroke="white"/>
</svg>
